<svg xmlns="http://www.w3.org/2000/svg" viewBox="0 0 128 128" width="128" height="128">
  <defs>
    <linearGradient id="bg" x1="0" y1="0" x2="0" y2="1">
      <stop offset="0" stop-color="#1f2937"/>
      <stop offset="1" stop-color="#0b1220"/>
    </linearGradient>
    <linearGradient id="hand" x1="0" y1="0" x2="1" y2="1">
      <stop offset="0" stop-color="#f97316"/>
      <stop offset="1" stop-color="#ef4444"/>
    </linearGradient>
  </defs>
  <rect width="128" height="128" rx="22" fill="url(#bg)"/>
  <circle cx="64" cy="64" r="44" fill="none" stroke="#94a3b8" stroke-width="4"/>
  <circle cx="64" cy="64" r="44" fill="none" stroke="#475569" stroke-width="2" stroke-dasharray="2 6"/>
  <g stroke="#cbd5e1" stroke-width="3" stroke-linecap="round">
    <line x1="64" y1="22" x2="64" y2="30"/>
    <line x1="64" y1="98" x2="64" y2="106"/>
    <line x1="22" y1="64" x2="30" y2="64"/>
    <line x1="98" y1="64" x2="106" y2="64"/>
  </g>
  <line x1="64" y1="64" x2="64" y2="34" stroke="url(#hand)" stroke-width="5" stroke-linecap="round"/>
  <line x1="64" y1="64" x2="86" y2="78" stroke="url(#hand)" stroke-width="4" stroke-linecap="round"/>
  <circle cx="64" cy="64" r="4" fill="#f97316"/>
  <g fill="#22c55e">
    <circle cx="36" cy="100" r="5"/>
    <circle cx="64" cy="108" r="5"/>
    <circle cx="92" cy="100" r="5"/>
  </g>
  <line x1="36" y1="100" x2="64" y2="108" stroke="#22c55e" stroke-width="2"/>
  <line x1="64" y1="108" x2="92" y2="100" stroke="#22c55e" stroke-width="2"/>
</svg>
